# xmcd
#
# Track frame offsets:
#	150
#	63786
#	88297
#	113125
#
# Disc length: 2226 seconds
#
# Revision: 1
# Processed by: cddbd v1.5.2PL0 Copyright (c) Steve Scherf et al.
# Submitted via: audiograbber 1.83.01
#
DISCID=2d08b004
DTITLE=Grateful Dead - 73-09-21 The Spectrum, Philadelphia PA
DYEAR=1900
DGENRE=
TTITLE0=Playing In The Band
TTITLE1=Let Me Sing You Blues Away
TTITLE2=WRS Prelude > WRS Part 1 >
TTITLE3=Let It Grow
EXTD=
EXTT0=
EXTT1=
EXTT2=
EXTT3=
PLAYORDER=
